<?xml version="1.0" encoding="UTF-8"?>
<svg xmlns="http://www.w3.org/2000/svg" version="1.1" width="600" height="600" viewBox="0 0 600 600"><rect x="0" y="0" width="600" height="600" fill="#ffffff"/><g transform="scale(20.69)"><g transform="translate(0,0)"><path fill-rule="evenodd" d="M10 0L10 2L11 2L11 0ZM12 0L12 1L13 1L13 2L12 2L12 4L14 4L14 5L11 5L11 6L10 6L10 4L11 4L11 3L8 3L8 4L9 4L9 5L8 5L8 7L9 7L9 8L6 8L6 9L8 9L8 10L6 10L6 11L3 11L3 10L4 10L4 9L5 9L5 8L0 8L0 10L1 10L1 9L2 9L2 12L1 12L1 11L0 11L0 14L1 14L1 13L2 13L2 14L3 14L3 15L0 15L0 16L1 16L1 17L0 17L0 21L1 21L1 18L2 18L2 21L3 21L3 20L4 20L4 21L5 21L5 20L6 20L6 21L8 21L8 23L9 23L9 21L11 21L11 20L10 20L10 18L11 18L11 17L12 17L12 18L13 18L13 19L12 19L12 21L13 21L13 20L14 20L14 21L16 21L16 22L15 22L15 23L14 23L14 24L15 24L15 25L12 25L12 23L13 23L13 22L11 22L11 23L10 23L10 24L8 24L8 29L10 29L10 27L11 27L11 25L12 25L12 26L13 26L13 27L12 27L12 29L13 29L13 28L14 28L14 29L16 29L16 28L17 28L17 29L18 29L18 28L17 28L17 27L18 27L18 25L16 25L16 24L17 24L17 23L18 23L18 24L20 24L20 26L19 26L19 27L20 27L20 28L22 28L22 29L27 29L27 28L28 28L28 26L29 26L29 25L27 25L27 24L29 24L29 23L27 23L27 22L29 22L29 20L28 20L28 19L27 19L27 16L28 16L28 15L27 15L27 14L25 14L25 13L27 13L27 12L28 12L28 11L27 11L27 12L26 12L26 11L25 11L25 13L24 13L24 14L23 14L23 13L20 13L20 12L21 12L21 10L22 10L22 11L23 11L23 12L24 12L24 11L23 11L23 10L25 10L25 9L26 9L26 8L25 8L25 9L24 9L24 8L23 8L23 9L22 9L22 8L21 8L21 9L19 9L19 10L20 10L20 11L19 11L19 14L17 14L17 13L18 13L18 12L17 12L17 13L16 13L16 14L15 14L15 15L14 15L14 16L15 16L15 17L12 17L12 15L13 15L13 14L10 14L10 15L11 15L11 17L10 17L10 18L8 18L8 19L9 19L9 20L6 20L6 19L7 19L7 18L5 18L5 17L7 17L7 16L8 16L8 17L9 17L9 14L6 14L6 13L11 13L11 12L9 12L9 9L10 9L10 11L11 11L11 9L12 9L12 10L13 10L13 11L12 11L12 13L13 13L13 12L14 12L14 13L15 13L15 12L16 12L16 11L17 11L17 9L18 9L18 8L17 8L17 6L18 6L18 7L19 7L19 8L20 8L20 7L21 7L21 6L20 6L20 7L19 7L19 6L18 6L18 5L21 5L21 4L19 4L19 2L18 2L18 3L15 3L15 2L17 2L17 1L20 1L20 2L21 2L21 0L17 0L17 1L14 1L14 0ZM8 1L8 2L9 2L9 1ZM13 2L13 3L14 3L14 4L15 4L15 5L16 5L16 6L15 6L15 7L16 7L16 6L17 6L17 5L16 5L16 4L15 4L15 3L14 3L14 2ZM9 6L9 7L10 7L10 6ZM11 6L11 7L12 7L12 9L14 9L14 10L16 10L16 9L17 9L17 8L14 8L14 6L13 6L13 7L12 7L12 6ZM10 8L10 9L11 9L11 8ZM27 8L27 9L28 9L28 10L29 10L29 9L28 9L28 8ZM6 11L6 12L7 12L7 11ZM14 11L14 12L15 12L15 11ZM2 12L2 13L3 13L3 12ZM4 12L4 13L5 13L5 12ZM28 13L28 14L29 14L29 13ZM5 14L5 15L6 15L6 16L7 16L7 15L6 15L6 14ZM19 14L19 15L16 15L16 17L15 17L15 18L16 18L16 19L17 19L17 20L18 20L18 21L17 21L17 22L20 22L20 20L19 20L19 19L20 19L20 18L18 18L18 17L19 17L19 16L20 16L20 17L23 17L23 16L22 16L22 15L23 15L23 14ZM24 14L24 15L25 15L25 16L24 16L24 17L25 17L25 18L24 18L24 19L25 19L25 21L26 21L26 20L27 20L27 19L26 19L26 17L25 17L25 16L27 16L27 15L25 15L25 14ZM3 15L3 16L2 16L2 17L3 17L3 18L4 18L4 17L5 17L5 16L4 16L4 15ZM20 15L20 16L21 16L21 15ZM17 16L17 17L16 17L16 18L17 18L17 17L18 17L18 16ZM28 17L28 18L29 18L29 17ZM21 18L21 20L23 20L23 18ZM4 19L4 20L5 20L5 19ZM14 19L14 20L15 20L15 19ZM21 21L21 24L24 24L24 21ZM22 22L22 23L23 23L23 22ZM25 23L25 25L24 25L24 26L25 26L25 25L26 25L26 24L27 24L27 23ZM9 25L9 27L10 27L10 25ZM15 25L15 26L16 26L16 27L17 27L17 26L16 26L16 25ZM21 25L21 27L22 27L22 28L23 28L23 27L22 27L22 26L23 26L23 25ZM14 27L14 28L15 28L15 27ZM24 27L24 28L25 28L25 27ZM26 27L26 28L27 28L27 27ZM0 0L0 7L7 7L7 0ZM1 1L1 6L6 6L6 1ZM2 2L2 5L5 5L5 2ZM22 0L22 7L29 7L29 0ZM23 1L23 6L28 6L28 1ZM24 2L24 5L27 5L27 2ZM0 22L0 29L7 29L7 22ZM1 23L1 28L6 28L6 23ZM2 24L2 27L5 27L5 24Z" fill="#000000"/></g></g></svg>
