<?xml version="1.0" encoding="UTF-8"?>
<svg xmlns="http://www.w3.org/2000/svg" version="1.1" width="600" height="600" viewBox="0 0 600 600"><rect x="0" y="0" width="600" height="600" fill="#ffffff"/><g transform="scale(20.69)"><g transform="translate(0,0)"><path fill-rule="evenodd" d="M9 0L9 1L8 1L8 2L9 2L9 3L8 3L8 4L10 4L10 7L11 7L11 4L12 4L12 5L13 5L13 4L14 4L14 5L15 5L15 6L14 6L14 8L13 8L13 6L12 6L12 9L14 9L14 10L11 10L11 11L10 11L10 9L11 9L11 8L6 8L6 9L5 9L5 8L0 8L0 9L1 9L1 10L0 10L0 11L1 11L1 10L2 10L2 11L3 11L3 12L2 12L2 14L1 14L1 12L0 12L0 15L2 15L2 14L3 14L3 13L5 13L5 14L4 14L4 15L5 15L5 14L6 14L6 15L8 15L8 14L9 14L9 16L6 16L6 17L8 17L8 18L2 18L2 17L5 17L5 16L2 16L2 17L1 17L1 16L0 16L0 21L1 21L1 18L2 18L2 20L3 20L3 21L4 21L4 20L5 20L5 21L7 21L7 20L9 20L9 18L11 18L11 19L10 19L10 21L8 21L8 23L9 23L9 24L8 24L8 29L9 29L9 28L11 28L11 29L12 29L12 27L13 27L13 26L11 26L11 27L10 27L10 26L9 26L9 25L11 25L11 24L10 24L10 23L11 23L11 22L10 22L10 21L12 21L12 22L13 22L13 23L12 23L12 25L13 25L13 24L14 24L14 25L16 25L16 26L15 26L15 27L14 27L14 28L15 28L15 29L16 29L16 28L17 28L17 29L18 29L18 28L17 28L17 27L18 27L18 25L16 25L16 24L17 24L17 23L18 23L18 24L20 24L20 26L19 26L19 27L20 27L20 28L22 28L22 29L27 29L27 28L28 28L28 26L29 26L29 25L27 25L27 24L26 24L26 25L25 25L25 23L27 23L27 22L29 22L29 20L28 20L28 19L27 19L27 16L28 16L28 15L27 15L27 14L25 14L25 13L27 13L27 12L28 12L28 11L27 11L27 12L26 12L26 11L25 11L25 13L24 13L24 14L23 14L23 13L20 13L20 12L21 12L21 10L22 10L22 11L23 11L23 12L24 12L24 11L23 11L23 10L25 10L25 9L26 9L26 8L25 8L25 9L24 9L24 8L23 8L23 9L22 9L22 8L21 8L21 9L19 9L19 10L20 10L20 11L19 11L19 14L17 14L17 13L18 13L18 12L17 12L17 13L16 13L16 14L14 14L14 13L12 13L12 11L15 11L15 12L16 12L16 11L17 11L17 9L18 9L18 8L17 8L17 6L18 6L18 7L19 7L19 8L20 8L20 7L21 7L21 6L20 6L20 7L19 7L19 6L18 6L18 5L21 5L21 4L19 4L19 2L18 2L18 3L15 3L15 2L17 2L17 1L20 1L20 2L21 2L21 0L17 0L17 1L14 1L14 0L13 0L13 1L11 1L11 2L10 2L10 0ZM12 2L12 4L13 4L13 3L14 3L14 4L15 4L15 5L16 5L16 6L15 6L15 7L16 7L16 6L17 6L17 5L16 5L16 4L15 4L15 3L14 3L14 2ZM10 3L10 4L11 4L11 3ZM8 5L8 7L9 7L9 5ZM14 8L14 9L15 9L15 10L16 10L16 9L17 9L17 8ZM27 8L27 9L28 9L28 10L29 10L29 9L28 9L28 8ZM2 9L2 10L3 10L3 11L4 11L4 12L5 12L5 13L6 13L6 14L7 14L7 13L9 13L9 14L10 14L10 15L11 15L11 18L13 18L13 19L12 19L12 21L15 21L15 22L16 22L16 21L15 21L15 20L14 20L14 19L15 19L15 18L16 18L16 19L17 19L17 20L18 20L18 21L17 21L17 22L20 22L20 20L19 20L19 19L20 19L20 18L18 18L18 17L19 17L19 16L20 16L20 17L23 17L23 16L22 16L22 15L23 15L23 14L19 14L19 15L16 15L16 17L14 17L14 16L15 16L15 15L14 15L14 16L13 16L13 17L12 17L12 15L13 15L13 14L12 14L12 13L11 13L11 12L10 12L10 13L9 13L9 10L8 10L8 11L6 11L6 10L7 10L7 9L6 9L6 10L5 10L5 9L4 9L4 10L3 10L3 9ZM6 12L6 13L7 13L7 12ZM10 13L10 14L11 14L11 13ZM28 13L28 14L29 14L29 13ZM24 14L24 15L25 15L25 16L24 16L24 17L25 17L25 18L24 18L24 19L25 19L25 21L26 21L26 20L27 20L27 19L26 19L26 17L25 17L25 16L27 16L27 15L25 15L25 14ZM20 15L20 16L21 16L21 15ZM17 16L17 17L16 17L16 18L17 18L17 17L18 17L18 16ZM28 17L28 18L29 18L29 17ZM21 18L21 20L23 20L23 18ZM5 19L5 20L7 20L7 19ZM21 21L21 24L24 24L24 21ZM22 22L22 23L23 23L23 22ZM14 23L14 24L15 24L15 23ZM28 23L28 24L29 24L29 23ZM21 25L21 27L22 27L22 28L23 28L23 27L22 27L22 26L23 26L23 25ZM24 25L24 26L25 26L25 25ZM16 26L16 27L17 27L17 26ZM24 27L24 28L25 28L25 27ZM26 27L26 28L27 28L27 27ZM0 0L0 7L7 7L7 0ZM1 1L1 6L6 6L6 1ZM2 2L2 5L5 5L5 2ZM22 0L22 7L29 7L29 0ZM23 1L23 6L28 6L28 1ZM24 2L24 5L27 5L27 2ZM0 22L0 29L7 29L7 22ZM1 23L1 28L6 28L6 23ZM2 24L2 27L5 27L5 24Z" fill="#000000"/></g></g></svg>
