<?xml version="1.0" encoding="UTF-8"?>
<svg xmlns="http://www.w3.org/2000/svg" version="1.1" width="600" height="600" viewBox="0 0 600 600"><rect x="0" y="0" width="600" height="600" fill="#ffffff"/><g transform="scale(20.69)"><g transform="translate(0,0)"><path fill-rule="evenodd" d="M8 0L8 1L9 1L9 2L8 2L8 5L9 5L9 4L11 4L11 5L10 5L10 10L9 10L9 8L8 8L8 9L7 9L7 8L6 8L6 9L4 9L4 8L0 8L0 9L1 9L1 10L3 10L3 9L4 9L4 10L6 10L6 11L3 11L3 12L2 12L2 11L1 11L1 12L2 12L2 13L3 13L3 12L6 12L6 13L8 13L8 14L1 14L1 13L0 13L0 15L3 15L3 16L2 16L2 18L3 18L3 19L2 19L2 20L1 20L1 21L2 21L2 20L3 20L3 21L5 21L5 20L3 20L3 19L5 19L5 16L4 16L4 15L7 15L7 16L6 16L6 17L7 17L7 18L6 18L6 19L7 19L7 18L8 18L8 17L7 17L7 16L9 16L9 17L10 17L10 21L9 21L9 20L6 20L6 21L8 21L8 22L10 22L10 21L11 21L11 20L12 20L12 19L11 19L11 17L10 17L10 16L12 16L12 17L13 17L13 16L12 16L12 14L13 14L13 15L14 15L14 18L13 18L13 21L15 21L15 19L16 19L16 20L17 20L17 21L16 21L16 23L17 23L17 21L20 21L20 22L19 22L19 23L20 23L20 25L21 25L21 26L20 26L20 29L23 29L23 28L24 28L24 26L26 26L26 27L25 27L25 29L26 29L26 27L27 27L27 29L28 29L28 27L29 27L29 25L28 25L28 27L27 27L27 26L26 26L26 25L27 25L27 24L26 24L26 22L27 22L27 23L28 23L28 22L29 22L29 21L27 21L27 18L28 18L28 15L29 15L29 13L27 13L27 12L25 12L25 9L27 9L27 8L24 8L24 9L22 9L22 8L21 8L21 6L20 6L20 4L19 4L19 3L20 3L20 2L19 2L19 1L21 1L21 0L17 0L17 1L16 1L16 2L14 2L14 0L12 0L12 1L11 1L11 0L10 0L10 1L9 1L9 0ZM11 2L11 4L12 4L12 3L13 3L13 2ZM17 2L17 3L19 3L19 2ZM14 3L14 6L13 6L13 5L12 5L12 6L11 6L11 8L12 8L12 6L13 6L13 8L14 8L14 11L11 11L11 13L10 13L10 14L11 14L11 13L12 13L12 12L13 12L13 14L14 14L14 15L16 15L16 16L15 16L15 17L16 17L16 19L20 19L20 20L21 20L21 19L22 19L22 20L26 20L26 18L25 18L25 17L24 17L24 16L22 16L22 15L21 15L21 14L22 14L22 13L24 13L24 14L25 14L25 16L26 16L26 17L27 17L27 15L26 15L26 13L25 13L25 12L20 12L20 11L21 11L21 10L19 10L19 9L17 9L17 10L19 10L19 12L18 12L18 11L17 11L17 12L16 12L16 9L15 9L15 8L16 8L16 5L15 5L15 3ZM17 4L17 5L19 5L19 4ZM8 6L8 7L9 7L9 6ZM14 6L14 7L15 7L15 6ZM17 6L17 7L18 7L18 6ZM19 6L19 7L20 7L20 6ZM20 8L20 9L21 9L21 8ZM28 8L28 10L26 10L26 11L28 11L28 12L29 12L29 11L28 11L28 10L29 10L29 8ZM6 9L6 10L7 10L7 11L6 11L6 12L8 12L8 10L7 10L7 9ZM11 9L11 10L12 10L12 9ZM14 12L14 14L17 14L17 15L18 15L18 14L19 14L19 15L20 15L20 16L18 16L18 17L20 17L20 19L21 19L21 17L22 17L22 16L21 16L21 15L20 15L20 12L19 12L19 13L18 13L18 12L17 12L17 13L15 13L15 12ZM8 14L8 15L9 15L9 16L10 16L10 15L9 15L9 14ZM3 16L3 18L4 18L4 16ZM23 17L23 19L24 19L24 17ZM0 18L0 19L1 19L1 18ZM21 21L21 24L24 24L24 21ZM14 22L14 23L10 23L10 24L9 24L9 25L8 25L8 29L12 29L12 28L14 28L14 27L15 27L15 28L17 28L17 27L19 27L19 25L18 25L18 26L17 26L17 25L16 25L16 24L15 24L15 22ZM22 22L22 23L23 23L23 22ZM10 24L10 25L9 25L9 26L11 26L11 27L10 27L10 28L12 28L12 26L13 26L13 27L14 27L14 26L15 26L15 27L16 27L16 26L15 26L15 24L12 24L12 26L11 26L11 24ZM25 24L25 25L26 25L26 24ZM13 25L13 26L14 26L14 25ZM22 25L22 28L23 28L23 26L24 26L24 25ZM18 28L18 29L19 29L19 28ZM0 0L0 7L7 7L7 0ZM1 1L1 6L6 6L6 1ZM2 2L2 5L5 5L5 2ZM22 0L22 7L29 7L29 0ZM23 1L23 6L28 6L28 1ZM24 2L24 5L27 5L27 2ZM0 22L0 29L7 29L7 22ZM1 23L1 28L6 28L6 23ZM2 24L2 27L5 27L5 24Z" fill="#000000"/></g></g></svg>
