<?xml version="1.0" encoding="UTF-8"?>
<svg xmlns="http://www.w3.org/2000/svg" version="1.1" width="600" height="600" viewBox="0 0 600 600"><rect x="0" y="0" width="600" height="600" fill="#ffffff"/><g transform="scale(20.69)"><g transform="translate(0,0)"><path fill-rule="evenodd" d="M8 0L8 1L10 1L10 0ZM13 0L13 2L11 2L11 4L10 4L10 3L9 3L9 2L8 2L8 5L9 5L9 6L8 6L8 7L9 7L9 8L8 8L8 9L9 9L9 10L10 10L10 9L9 9L9 8L10 8L10 7L11 7L11 8L12 8L12 7L13 7L13 6L14 6L14 7L15 7L15 6L14 6L14 5L12 5L12 3L13 3L13 4L14 4L14 3L15 3L15 5L16 5L16 8L15 8L15 9L13 9L13 10L14 10L14 11L11 11L11 13L10 13L10 12L8 12L8 13L10 13L10 15L11 15L11 14L12 14L12 16L11 16L11 17L10 17L10 18L9 18L9 16L8 16L8 14L6 14L6 15L5 15L5 17L4 17L4 15L3 15L3 16L2 16L2 14L3 14L3 13L5 13L5 11L8 11L8 10L5 10L5 9L4 9L4 8L0 8L0 11L1 11L1 9L4 9L4 12L3 12L3 13L2 13L2 12L1 12L1 13L0 13L0 17L1 17L1 16L2 16L2 17L3 17L3 18L2 18L2 19L3 19L3 20L1 20L1 21L5 21L5 20L6 20L6 21L8 21L8 22L10 22L10 23L9 23L9 24L10 24L10 25L8 25L8 29L9 29L9 26L10 26L10 28L12 28L12 29L13 29L13 28L12 28L12 26L13 26L13 27L14 27L14 29L15 29L15 28L17 28L17 27L19 27L19 25L18 25L18 26L17 26L17 25L16 25L16 24L14 24L14 26L13 26L13 24L12 24L12 25L11 25L11 24L10 24L10 23L14 23L14 22L15 22L15 21L14 21L14 20L13 20L13 18L14 18L14 17L12 17L12 16L14 16L14 15L15 15L15 16L16 16L16 15L15 15L15 14L17 14L17 15L18 15L18 14L19 14L19 15L20 15L20 16L18 16L18 17L20 17L20 19L16 19L16 17L15 17L15 19L16 19L16 20L17 20L17 21L16 21L16 23L17 23L17 21L20 21L20 22L19 22L19 23L20 23L20 25L21 25L21 26L20 26L20 29L23 29L23 28L24 28L24 26L26 26L26 27L25 27L25 29L26 29L26 27L27 27L27 29L28 29L28 27L29 27L29 25L28 25L28 27L27 27L27 26L26 26L26 25L27 25L27 24L28 24L28 22L29 22L29 21L27 21L27 18L28 18L28 15L29 15L29 13L27 13L27 12L25 12L25 9L27 9L27 8L24 8L24 9L22 9L22 8L21 8L21 6L20 6L20 4L19 4L19 3L20 3L20 2L19 2L19 1L21 1L21 0L17 0L17 1L16 1L16 2L14 2L14 0ZM17 2L17 3L19 3L19 2ZM17 4L17 5L19 5L19 4ZM10 5L10 6L9 6L9 7L10 7L10 6L11 6L11 7L12 7L12 5ZM17 6L17 7L18 7L18 6ZM19 6L19 7L20 7L20 6ZM6 8L6 9L7 9L7 8ZM20 8L20 9L21 9L21 8ZM28 8L28 10L26 10L26 11L28 11L28 12L29 12L29 11L28 11L28 10L29 10L29 8ZM15 9L15 11L14 11L14 12L12 12L12 14L13 14L13 15L14 15L14 14L13 14L13 13L17 13L17 12L18 12L18 13L19 13L19 12L20 12L20 15L21 15L21 16L22 16L22 17L21 17L21 19L20 19L20 20L21 20L21 19L22 19L22 20L26 20L26 18L25 18L25 17L24 17L24 16L22 16L22 15L21 15L21 14L22 14L22 13L24 13L24 14L25 14L25 16L26 16L26 17L27 17L27 15L26 15L26 13L25 13L25 12L20 12L20 11L21 11L21 10L19 10L19 9L17 9L17 10L19 10L19 12L18 12L18 11L17 11L17 12L16 12L16 9ZM2 10L2 11L3 11L3 10ZM6 12L6 13L7 13L7 12ZM6 15L6 16L7 16L7 15ZM6 17L6 18L8 18L8 17ZM11 17L11 18L10 18L10 19L8 19L8 20L9 20L9 21L11 21L11 22L12 22L12 21L11 21L11 20L12 20L12 19L11 19L11 18L12 18L12 17ZM23 17L23 19L24 19L24 17ZM0 18L0 19L1 19L1 18ZM3 18L3 19L5 19L5 18ZM6 19L6 20L7 20L7 19ZM21 21L21 24L24 24L24 21ZM22 22L22 23L23 23L23 22ZM26 22L26 24L25 24L25 25L26 25L26 24L27 24L27 22ZM22 25L22 28L23 28L23 26L24 26L24 25ZM14 26L14 27L16 27L16 26ZM18 28L18 29L19 29L19 28ZM0 0L0 7L7 7L7 0ZM1 1L1 6L6 6L6 1ZM2 2L2 5L5 5L5 2ZM22 0L22 7L29 7L29 0ZM23 1L23 6L28 6L28 1ZM24 2L24 5L27 5L27 2ZM0 22L0 29L7 29L7 22ZM1 23L1 28L6 28L6 23ZM2 24L2 27L5 27L5 24Z" fill="#000000"/></g></g></svg>
