<?xml version="1.0" encoding="UTF-8"?>
<svg xmlns="http://www.w3.org/2000/svg" version="1.1" width="300" height="300" viewBox="0 0 300 300"><rect x="0" y="0" width="300" height="300" fill="#ffffff"/><g transform="scale(14.286)"><g transform="translate(0,0)"><path fill-rule="evenodd" d="M12 0L12 2L11 2L11 1L10 1L10 4L9 4L9 3L8 3L8 5L9 5L9 6L8 6L8 7L9 7L9 6L10 6L10 7L11 7L11 6L12 6L12 7L13 7L13 6L12 6L12 5L13 5L13 0ZM11 3L11 4L10 4L10 6L11 6L11 5L12 5L12 3ZM0 8L0 9L2 9L2 12L0 12L0 13L2 13L2 12L3 12L3 13L4 13L4 12L6 12L6 13L8 13L8 16L9 16L9 19L8 19L8 21L11 21L11 18L12 18L12 21L13 21L13 19L14 19L14 18L15 18L15 15L14 15L14 11L13 11L13 10L16 10L16 9L18 9L18 10L17 10L17 12L16 12L16 11L15 11L15 13L16 13L16 14L18 14L18 12L19 12L19 13L21 13L21 11L20 11L20 10L19 10L19 9L18 9L18 8L16 8L16 9L12 9L12 8L11 8L11 9L9 9L9 12L6 12L6 11L8 11L8 8L5 8L5 9L2 9L2 8ZM6 9L6 10L3 10L3 11L6 11L6 10L7 10L7 9ZM11 9L11 10L10 10L10 13L11 13L11 12L12 12L12 9ZM0 10L0 11L1 11L1 10ZM12 13L12 14L13 14L13 13ZM9 14L9 16L11 16L11 17L10 17L10 18L11 18L11 17L12 17L12 18L14 18L14 17L12 17L12 15L11 15L11 14ZM19 14L19 15L16 15L16 16L19 16L19 17L16 17L16 19L15 19L15 20L14 20L14 21L17 21L17 20L19 20L19 21L20 21L20 20L19 20L19 19L21 19L21 18L19 18L19 17L21 17L21 15L20 15L20 14ZM13 15L13 16L14 16L14 15ZM9 19L9 20L10 20L10 19ZM16 19L16 20L17 20L17 19ZM0 0L0 7L7 7L7 0ZM1 1L1 6L6 6L6 1ZM2 2L2 5L5 5L5 2ZM14 0L14 7L21 7L21 0ZM15 1L15 6L20 6L20 1ZM16 2L16 5L19 5L19 2ZM0 14L0 21L7 21L7 14ZM1 15L1 20L6 20L6 15ZM2 16L2 19L5 19L5 16Z" fill="#000000"/></g></g></svg>
